<?xml version="1.0" encoding="utf-8"?>
<!-- Generator: Adobe Illustrator 26.5.0, SVG Export Plug-In . SVG Version: 6.00 Build 0)  -->
<svg version="1.1" id="Camada_1" xmlns="http://www.w3.org/2000/svg" xmlns:xlink="http://www.w3.org/1999/xlink" x="0px" y="0px"
	 viewBox="0 0 700 700" style="enable-background:new 0 0 700 700;" xml:space="preserve">
<style type="text/css">
	.st0{fill:#FFFFFF;}
	.st1{fill:#FF0043;}
</style>
<rect x="198.2" y="178" class="st0" width="303.6" height="344"/>
<path class="st1" d="M84,350c0,70.5,28,138.2,77.9,188.1C211.8,588,279.5,616,350,616s138.2-28,188.1-77.9
	C588,488.2,616,420.5,616,350c0-46.7-12.3-92.6-35.6-133c-23.3-40.4-56.9-74-97.4-97.4C442.6,96.3,396.7,84,350,84
	c-70.5,0-138.2,28-188.1,77.9C112,211.8,84,279.5,84,350L84,350z M373.4,219.2L474.2,320c8,8,11.1,19.7,8.2,30.6
	c-2.9,10.9-11.5,19.5-22.4,22.4c-10.9,2.9-22.6-0.2-30.6-8.2l-48-48.4v142c0,11.3-6,21.7-15.8,27.4c-9.8,5.6-21.8,5.6-31.6,0
	c-9.8-5.6-15.8-16.1-15.8-27.4V317.1l-47.7,47.7c-8,8-19.7,11.1-30.6,8.2c-10.9-2.9-19.5-11.5-22.4-22.4
	c-2.9-10.9,0.2-22.6,8.2-30.6l100.8-100.8c6.2-6.2,14.7-9.5,23.5-9.1h1C359.4,210,367.4,213.3,373.4,219.2L373.4,219.2z"/>
</svg>
